<svg xmlns="http://www.w3.org/2000/svg" viewBox="0 0 16 16">
    <path fill="#E6000E" fill-rule="evenodd" d="M9.474 11.048V7.95L8 9.645 6.525 7.951v3.097H4.57V4.952h1.851L8 6.912l1.577-1.96h1.852v6.096H9.474zM5.128 0H16v2H4.564c-.892 0-1.215.093-1.54.267-.327.174-.583.43-.757.756-.174.326-.267.65-.267 1.54V9a2 2 0 0 1-2 2V5.128c0-1.783.186-2.43.534-3.082A3.635 3.635 0 0 1 2.046.534C2.698.186 3.345 0 5.128 0zm5.744 16H0v-2h11.436c.892 0 1.215-.093 1.54-.267.327-.174.583-.43.757-.756.174-.326.267-.65.267-1.54V7a2 2 0 0 1 2-2v5.872c0 1.783-.186 2.43-.534 3.082a3.635 3.635 0 0 1-1.512 1.512c-.652.348-1.299.534-3.082.534z"/>
</svg>